<svg width="250" height="128" viewBox="0 0 250 128" fill="none" xmlns="http://www.w3.org/2000/svg">
<path d="M29.597 103L29.58 95.112L25.67 101.64H24.684L20.774 95.214V103H18.683V91.1H20.502L25.211 98.971L29.869 91.1H31.671L31.705 103H29.597ZM34.7971 93.922H36.9221V99.906L41.9371 93.922H43.8751V103H41.7501V97.016L36.7521 103H34.7971V93.922ZM46.7337 93.922H48.8587V97.611H53.4317V93.922H55.5567V103H53.4317V99.413H48.8587V103H46.7337V93.922ZM58.4046 93.922H60.5296V99.906L65.5446 93.922H67.4826V103H65.3576V97.016L60.3596 103H58.4046V93.922ZM79.2661 103V96.982L76.2061 102.048H75.2881L72.2791 96.965V103H70.3411V93.922H72.5681L75.7981 99.6L79.1811 93.922H81.1701L81.1871 103H79.2661ZM87.4204 93.82C88.7577 93.82 89.7777 94.143 90.4804 94.789C91.1944 95.4237 91.5514 96.387 91.5514 97.679V103H89.5454V101.895C89.2847 102.292 88.9107 102.598 88.4234 102.813C87.9474 103.017 87.3694 103.119 86.6894 103.119C86.0094 103.119 85.4144 103.006 84.9044 102.779C84.3944 102.541 83.9977 102.218 83.7144 101.81C83.4424 101.391 83.3064 100.92 83.3064 100.399C83.3064 99.583 83.6067 98.9313 84.2074 98.444C84.8194 97.9453 85.777 97.696 87.0804 97.696H89.4264V97.56C89.4264 96.9253 89.2337 96.438 88.8484 96.098C88.4744 95.758 87.9134 95.588 87.1654 95.588C86.6554 95.588 86.151 95.6673 85.6524 95.826C85.165 95.9847 84.7514 96.2057 84.4114 96.489L83.5784 94.942C84.0544 94.5793 84.6267 94.3017 85.2954 94.109C85.964 93.9163 86.6724 93.82 87.4204 93.82ZM87.1314 101.572C87.664 101.572 88.1344 101.453 88.5424 101.215C88.9617 100.966 89.2564 100.614 89.4264 100.161V99.107H87.2334C86.0094 99.107 85.3974 99.5093 85.3974 100.314C85.3974 100.699 85.5504 101.005 85.8564 101.232C86.1624 101.459 86.5874 101.572 87.1314 101.572ZM102.409 93.922V103H100.284V95.724H96.8839L96.7989 97.526C96.7423 98.7273 96.6289 99.736 96.4589 100.552C96.3003 101.357 96.0226 101.997 95.6259 102.473C95.2406 102.938 94.7079 103.17 94.0279 103.17C93.7106 103.17 93.3196 103.108 92.8549 102.983L92.9569 101.198C93.1156 101.232 93.2516 101.249 93.3649 101.249C93.7956 101.249 94.1186 101.079 94.3339 100.739C94.5493 100.388 94.6853 99.974 94.7419 99.498C94.8099 99.0107 94.8666 98.3193 94.9119 97.424L95.0649 93.922H102.409ZM109.827 96.914C110.983 96.914 111.867 97.1747 112.479 97.696C113.102 98.2173 113.414 98.954 113.414 99.906C113.414 100.903 113.074 101.674 112.394 102.218C111.714 102.762 110.756 103.028 109.521 103.017L105.271 103V93.922H107.396V96.897L109.827 96.914ZM109.334 101.453C109.957 101.464 110.433 101.334 110.762 101.062C111.09 100.79 111.255 100.393 111.255 99.872C111.255 99.362 111.096 98.988 110.779 98.75C110.461 98.512 109.98 98.3873 109.334 98.376L107.396 98.359V101.436L109.334 101.453ZM115.282 93.922H117.407V97.611H121.98V93.922H124.105V103H121.98V99.413H117.407V103H115.282V93.922ZM131.372 96.914C132.528 96.914 133.412 97.1747 134.024 97.696C134.636 98.2173 134.942 98.954 134.942 99.906C134.942 100.903 134.602 101.674 133.922 102.218C133.254 102.762 132.302 103.028 131.066 103.017L126.952 103V93.922H129.077V96.897L131.372 96.914ZM136.115 93.922H138.24V103H136.115V93.922ZM130.879 101.453C131.503 101.464 131.979 101.334 132.307 101.062C132.636 100.79 132.8 100.393 132.8 99.872C132.8 99.362 132.642 98.988 132.324 98.75C132.007 98.512 131.525 98.3873 130.879 98.376L129.077 98.359V101.436L130.879 101.453ZM141.097 93.922H143.222V99.906L148.237 93.922H150.175V103H148.05V97.016L143.052 103H141.097V93.922ZM145.5 92.851C144.582 92.851 143.879 92.6413 143.392 92.222C142.916 91.7913 142.672 91.168 142.661 90.352H144.072C144.083 90.76 144.208 91.083 144.446 91.321C144.695 91.559 145.041 91.678 145.483 91.678C145.914 91.678 146.254 91.559 146.503 91.321C146.764 91.083 146.9 90.76 146.911 90.352H148.356C148.345 91.168 148.095 91.7913 147.608 92.222C147.121 92.6413 146.418 92.851 145.5 92.851ZM162.764 93.82C163.648 93.82 164.435 94.0127 165.127 94.398C165.829 94.7833 166.379 95.3273 166.776 96.03C167.172 96.7327 167.371 97.543 167.371 98.461C167.371 99.379 167.172 100.195 166.776 100.909C166.379 101.612 165.829 102.156 165.127 102.541C164.435 102.926 163.648 103.119 162.764 103.119C161.54 103.119 160.571 102.711 159.857 101.895V106.298H157.732V93.922H159.755V95.112C160.106 94.6813 160.537 94.3583 161.047 94.143C161.568 93.9277 162.14 93.82 162.764 93.82ZM162.526 101.3C163.308 101.3 163.948 101.039 164.447 100.518C164.957 99.9967 165.212 99.311 165.212 98.461C165.212 97.611 164.957 96.9253 164.447 96.404C163.948 95.8827 163.308 95.622 162.526 95.622C162.016 95.622 161.557 95.741 161.149 95.979C160.741 96.2057 160.418 96.5343 160.18 96.965C159.942 97.3957 159.823 97.8943 159.823 98.461C159.823 99.0277 159.942 99.5263 160.18 99.957C160.418 100.388 160.741 100.722 161.149 100.96C161.557 101.187 162.016 101.3 162.526 101.3ZM169.486 93.922H171.611V99.906L176.626 93.922H178.564V103H176.439V97.016L171.441 103H169.486V93.922ZM185.553 103.119C184.612 103.119 183.768 102.921 183.02 102.524C182.272 102.127 181.688 101.578 181.269 100.875C180.85 100.161 180.64 99.3563 180.64 98.461C180.64 97.5657 180.85 96.7667 181.269 96.064C181.688 95.3613 182.266 94.8117 183.003 94.415C183.751 94.0183 184.601 93.82 185.553 93.82C186.448 93.82 187.23 94.0013 187.899 94.364C188.579 94.7267 189.089 95.248 189.429 95.928L187.797 96.88C187.536 96.4607 187.208 96.149 186.811 95.945C186.426 95.7297 186.001 95.622 185.536 95.622C184.743 95.622 184.085 95.8827 183.564 96.404C183.043 96.914 182.782 97.5997 182.782 98.461C182.782 99.3223 183.037 100.014 183.547 100.535C184.068 101.045 184.731 101.3 185.536 101.3C186.001 101.3 186.426 101.198 186.811 100.994C187.208 100.779 187.536 100.461 187.797 100.042L189.429 100.994C189.078 101.674 188.562 102.201 187.882 102.575C187.213 102.938 186.437 103.119 185.553 103.119ZM195.074 99.362H193.425V103H191.3V93.922H193.425V97.594H195.125L197.811 93.922H200.089L196.791 98.291L200.31 103H197.811L195.074 99.362ZM27.132 108.922V118H25.024V110.724H20.553V118H18.428V108.922H27.132ZM38.4993 113.512C38.4993 113.659 38.488 113.869 38.4653 114.141H31.3423C31.467 114.81 31.79 115.342 32.3113 115.739C32.844 116.124 33.5013 116.317 34.2833 116.317C35.2806 116.317 36.1023 115.988 36.7483 115.331L37.8873 116.64C37.4793 117.127 36.9636 117.496 36.3403 117.745C35.717 117.994 35.0143 118.119 34.2323 118.119C33.235 118.119 32.3566 117.921 31.5973 117.524C30.838 117.127 30.2486 116.578 29.8293 115.875C29.4213 115.161 29.2173 114.356 29.2173 113.461C29.2173 112.577 29.4156 111.784 29.8123 111.081C30.2203 110.367 30.7813 109.812 31.4953 109.415C32.2093 109.018 33.014 108.82 33.9093 108.82C34.7933 108.82 35.581 109.018 36.2723 109.415C36.975 109.8 37.519 110.35 37.9043 111.064C38.301 111.767 38.4993 112.583 38.4993 113.512ZM33.9093 110.52C33.2293 110.52 32.6513 110.724 32.1753 111.132C31.7106 111.529 31.4273 112.061 31.3253 112.73H36.4763C36.3856 112.073 36.108 111.54 35.6433 111.132C35.1786 110.724 34.6006 110.52 33.9093 110.52ZM45.8555 108.82C46.7395 108.82 47.5272 109.013 48.2185 109.398C48.9212 109.783 49.4708 110.327 49.8675 111.03C50.2642 111.733 50.4625 112.543 50.4625 113.461C50.4625 114.379 50.2642 115.195 49.8675 115.909C49.4708 116.612 48.9212 117.156 48.2185 117.541C47.5272 117.926 46.7395 118.119 45.8555 118.119C44.6315 118.119 43.6625 117.711 42.9485 116.895V121.298H40.8235V108.922H42.8465V110.112C43.1978 109.681 43.6285 109.358 44.1385 109.143C44.6598 108.928 45.2322 108.82 45.8555 108.82ZM45.6175 116.3C46.3995 116.3 47.0398 116.039 47.5385 115.518C48.0485 114.997 48.3035 114.311 48.3035 113.461C48.3035 112.611 48.0485 111.925 47.5385 111.404C47.0398 110.883 46.3995 110.622 45.6175 110.622C45.1075 110.622 44.6485 110.741 44.2405 110.979C43.8325 111.206 43.5095 111.534 43.2715 111.965C43.0335 112.396 42.9145 112.894 42.9145 113.461C42.9145 114.028 43.0335 114.526 43.2715 114.957C43.5095 115.388 43.8325 115.722 44.2405 115.96C44.6485 116.187 45.1075 116.3 45.6175 116.3ZM61.0774 113.512C61.0774 113.659 61.0661 113.869 61.0434 114.141H53.9204C54.0451 114.81 54.3681 115.342 54.8894 115.739C55.4221 116.124 56.0794 116.317 56.8614 116.317C57.8587 116.317 58.6804 115.988 59.3264 115.331L60.4654 116.64C60.0574 117.127 59.5417 117.496 58.9184 117.745C58.2951 117.994 57.5924 118.119 56.8104 118.119C55.8131 118.119 54.9347 117.921 54.1754 117.524C53.4161 117.127 52.8267 116.578 52.4074 115.875C51.9994 115.161 51.7954 114.356 51.7954 113.461C51.7954 112.577 51.9937 111.784 52.3904 111.081C52.7984 110.367 53.3594 109.812 54.0734 109.415C54.7874 109.018 55.5921 108.82 56.4874 108.82C57.3714 108.82 58.1591 109.018 58.8504 109.415C59.5531 109.8 60.0971 110.35 60.4824 111.064C60.8791 111.767 61.0774 112.583 61.0774 113.512ZM56.4874 110.52C55.8074 110.52 55.2294 110.724 54.7534 111.132C54.2887 111.529 54.0054 112.061 53.9034 112.73H59.0544C58.9637 112.073 58.6861 111.54 58.2214 111.132C57.7567 110.724 57.1787 110.52 56.4874 110.52ZM69.9806 113.274C71.1026 113.614 71.6636 114.339 71.6636 115.45C71.6636 116.266 71.3576 116.895 70.7456 117.337C70.1336 117.779 69.227 118 68.0256 118H63.4016V108.922H67.8386C68.9493 108.922 69.8163 109.126 70.4396 109.534C71.063 109.942 71.3746 110.52 71.3746 111.268C71.3746 111.733 71.25 112.135 71.0006 112.475C70.7626 112.815 70.4226 113.081 69.9806 113.274ZM65.4246 112.713H67.6516C68.751 112.713 69.3006 112.333 69.3006 111.574C69.3006 110.837 68.751 110.469 67.6516 110.469H65.4246V112.713ZM67.8556 116.453C69.023 116.453 69.6066 116.073 69.6066 115.314C69.6066 114.917 69.4706 114.623 69.1986 114.43C68.9266 114.226 68.5016 114.124 67.9236 114.124H65.4246V116.453H67.8556ZM82.427 113.512C82.427 113.659 82.4157 113.869 82.393 114.141H75.27C75.3947 114.81 75.7177 115.342 76.239 115.739C76.7717 116.124 77.429 116.317 78.211 116.317C79.2084 116.317 80.03 115.988 80.676 115.331L81.815 116.64C81.407 117.127 80.8914 117.496 80.268 117.745C79.6447 117.994 78.942 118.119 78.16 118.119C77.1627 118.119 76.2844 117.921 75.525 117.524C74.7657 117.127 74.1764 116.578 73.757 115.875C73.349 115.161 73.145 114.356 73.145 113.461C73.145 112.577 73.3434 111.784 73.74 111.081C74.148 110.367 74.709 109.812 75.423 109.415C76.137 109.018 76.9417 108.82 77.837 108.82C78.721 108.82 79.5087 109.018 80.2 109.415C80.9027 109.8 81.4467 110.35 81.832 111.064C82.2287 111.767 82.427 112.583 82.427 113.512ZM77.837 110.52C77.157 110.52 76.579 110.724 76.103 111.132C75.6384 111.529 75.355 112.061 75.253 112.73H80.404C80.3134 112.073 80.0357 111.54 79.571 111.132C79.1064 110.724 78.5284 110.52 77.837 110.52ZM89.7832 108.82C90.6672 108.82 91.4549 109.013 92.1462 109.398C92.8489 109.783 93.3986 110.327 93.7952 111.03C94.1919 111.733 94.3902 112.543 94.3902 113.461C94.3902 114.379 94.1919 115.195 93.7952 115.909C93.3986 116.612 92.8489 117.156 92.1462 117.541C91.4549 117.926 90.6672 118.119 89.7832 118.119C88.5592 118.119 87.5902 117.711 86.8762 116.895V121.298H84.7512V108.922H86.7742V110.112C87.1256 109.681 87.5562 109.358 88.0662 109.143C88.5876 108.928 89.1599 108.82 89.7832 108.82ZM89.5452 116.3C90.3272 116.3 90.9676 116.039 91.4662 115.518C91.9762 114.997 92.2312 114.311 92.2312 113.461C92.2312 112.611 91.9762 111.925 91.4662 111.404C90.9676 110.883 90.3272 110.622 89.5452 110.622C89.0352 110.622 88.5762 110.741 88.1682 110.979C87.7602 111.206 87.4372 111.534 87.1992 111.965C86.9612 112.396 86.8422 112.894 86.8422 113.461C86.8422 114.028 86.9612 114.526 87.1992 114.957C87.4372 115.388 87.7602 115.722 88.1682 115.96C88.5762 116.187 89.0352 116.3 89.5452 116.3ZM96.5051 108.922H98.6301V112.611H103.203V108.922H105.328V118H103.203V114.413H98.6301V118H96.5051V108.922ZM116.744 108.922L112.494 118.731C112.097 119.717 111.616 120.408 111.049 120.805C110.482 121.213 109.797 121.417 108.992 121.417C108.539 121.417 108.091 121.343 107.649 121.196C107.207 121.049 106.844 120.845 106.561 120.584L107.411 119.02C107.615 119.213 107.853 119.366 108.125 119.479C108.408 119.592 108.692 119.649 108.975 119.649C109.349 119.649 109.655 119.553 109.893 119.36C110.142 119.167 110.369 118.844 110.573 118.391L110.726 118.034L106.765 108.922H108.975L111.831 115.637L114.704 108.922H116.744ZM125.477 110.724H122.298V118H120.173V110.724H116.977V108.922H125.477V110.724ZM131.575 111.914C132.731 111.914 133.615 112.175 134.227 112.696C134.85 113.217 135.162 113.954 135.162 114.906C135.162 115.903 134.822 116.674 134.142 117.218C133.462 117.762 132.504 118.028 131.269 118.017L127.019 118V108.922H129.144V111.897L131.575 111.914ZM131.082 116.453C131.705 116.464 132.181 116.334 132.51 116.062C132.838 115.79 133.003 115.393 133.003 114.872C133.003 114.362 132.844 113.988 132.527 113.75C132.209 113.512 131.728 113.387 131.082 113.376L129.144 113.359V116.436L131.082 116.453ZM141.161 118.119C140.22 118.119 139.376 117.921 138.628 117.524C137.88 117.127 137.296 116.578 136.877 115.875C136.457 115.161 136.248 114.356 136.248 113.461C136.248 112.566 136.457 111.767 136.877 111.064C137.296 110.361 137.874 109.812 138.611 109.415C139.359 109.018 140.209 108.82 141.161 108.82C142.056 108.82 142.838 109.001 143.507 109.364C144.187 109.727 144.697 110.248 145.037 110.928L143.405 111.88C143.144 111.461 142.815 111.149 142.419 110.945C142.033 110.73 141.608 110.622 141.144 110.622C140.35 110.622 139.693 110.883 139.172 111.404C138.65 111.914 138.39 112.6 138.39 113.461C138.39 114.322 138.645 115.014 139.155 115.535C139.676 116.045 140.339 116.3 141.144 116.3C141.608 116.3 142.033 116.198 142.419 115.994C142.815 115.779 143.144 115.461 143.405 115.042L145.037 115.994C144.685 116.674 144.17 117.201 143.49 117.575C142.821 117.938 142.045 118.119 141.161 118.119ZM154.325 108.922V118H152.421V115.263H150.024L148.171 118H145.893L148.035 114.974C147.378 114.747 146.874 114.402 146.522 113.937C146.182 113.461 146.012 112.877 146.012 112.186C146.012 111.143 146.381 110.339 147.117 109.772C147.854 109.205 148.868 108.922 150.16 108.922H154.325ZM150.228 110.707C148.857 110.707 148.171 111.223 148.171 112.254C148.171 113.274 148.834 113.784 150.16 113.784H152.421V110.707H150.228ZM168.461 113.274C169.583 113.614 170.144 114.339 170.144 115.45C170.144 116.266 169.838 116.895 169.226 117.337C168.614 117.779 167.707 118 166.506 118H161.882V108.922H166.319C167.43 108.922 168.297 109.126 168.92 109.534C169.543 109.942 169.855 110.52 169.855 111.268C169.855 111.733 169.73 112.135 169.481 112.475C169.243 112.815 168.903 113.081 168.461 113.274ZM163.905 112.713H166.132C167.231 112.713 167.781 112.333 167.781 111.574C167.781 110.837 167.231 110.469 166.132 110.469H163.905V112.713ZM166.336 116.453C167.503 116.453 168.087 116.073 168.087 115.314C168.087 114.917 167.951 114.623 167.679 114.43C167.407 114.226 166.982 114.124 166.404 114.124H163.905V116.453H166.336ZM180.489 108.82C181.826 108.82 182.846 109.143 183.549 109.789C184.263 110.424 184.62 111.387 184.62 112.679V118H182.614V116.895C182.353 117.292 181.979 117.598 181.492 117.813C181.016 118.017 180.438 118.119 179.758 118.119C179.078 118.119 178.483 118.006 177.973 117.779C177.463 117.541 177.066 117.218 176.783 116.81C176.511 116.391 176.375 115.92 176.375 115.399C176.375 114.583 176.675 113.931 177.276 113.444C177.888 112.945 178.845 112.696 180.149 112.696H182.495V112.56C182.495 111.925 182.302 111.438 181.917 111.098C181.543 110.758 180.982 110.588 180.234 110.588C179.724 110.588 179.219 110.667 178.721 110.826C178.233 110.985 177.82 111.206 177.48 111.489L176.647 109.942C177.123 109.579 177.695 109.302 178.364 109.109C179.032 108.916 179.741 108.82 180.489 108.82ZM180.2 116.572C180.732 116.572 181.203 116.453 181.611 116.215C182.03 115.966 182.325 115.614 182.495 115.161V114.107H180.302C179.078 114.107 178.466 114.509 178.466 115.314C178.466 115.699 178.619 116.005 178.925 116.232C179.231 116.459 179.656 116.572 180.2 116.572ZM193.828 113.274C194.95 113.614 195.511 114.339 195.511 115.45C195.511 116.266 195.205 116.895 194.593 117.337C193.981 117.779 193.075 118 191.873 118H187.249V108.922H191.686C192.797 108.922 193.664 109.126 194.287 109.534C194.911 109.942 195.222 110.52 195.222 111.268C195.222 111.733 195.098 112.135 194.848 112.475C194.61 112.815 194.27 113.081 193.828 113.274ZM189.272 112.713H191.499C192.599 112.713 193.148 112.333 193.148 111.574C193.148 110.837 192.599 110.469 191.499 110.469H189.272V112.713ZM191.703 116.453C192.871 116.453 193.454 116.073 193.454 115.314C193.454 114.917 193.318 114.623 193.046 114.43C192.774 114.226 192.349 114.124 191.771 114.124H189.272V116.453H191.703ZM201.158 108.82C202.495 108.82 203.515 109.143 204.218 109.789C204.932 110.424 205.289 111.387 205.289 112.679V118H203.283V116.895C203.022 117.292 202.648 117.598 202.161 117.813C201.685 118.017 201.107 118.119 200.427 118.119C199.747 118.119 199.152 118.006 198.642 117.779C198.132 117.541 197.735 117.218 197.452 116.81C197.18 116.391 197.044 115.92 197.044 115.399C197.044 114.583 197.344 113.931 197.945 113.444C198.557 112.945 199.514 112.696 200.818 112.696H203.164V112.56C203.164 111.925 202.971 111.438 202.586 111.098C202.212 110.758 201.651 110.588 200.903 110.588C200.393 110.588 199.888 110.667 199.39 110.826C198.902 110.985 198.489 111.206 198.149 111.489L197.316 109.942C197.792 109.579 198.364 109.302 199.033 109.109C199.701 108.916 200.41 108.82 201.158 108.82ZM200.869 116.572C201.401 116.572 201.872 116.453 202.28 116.215C202.699 115.966 202.994 115.614 203.164 115.161V114.107H200.971C199.747 114.107 199.135 114.509 199.135 115.314C199.135 115.699 199.288 116.005 199.594 116.232C199.9 116.459 200.325 116.572 200.869 116.572ZM212.95 108.82C213.834 108.82 214.622 109.013 215.313 109.398C216.016 109.783 216.566 110.327 216.962 111.03C217.359 111.733 217.557 112.543 217.557 113.461C217.557 114.379 217.359 115.195 216.962 115.909C216.566 116.612 216.016 117.156 215.313 117.541C214.622 117.926 213.834 118.119 212.95 118.119C211.726 118.119 210.757 117.711 210.043 116.895V121.298H207.918V108.922H209.941V110.112C210.293 109.681 210.723 109.358 211.233 109.143C211.755 108.928 212.327 108.82 212.95 108.82ZM212.712 116.3C213.494 116.3 214.135 116.039 214.633 115.518C215.143 114.997 215.398 114.311 215.398 113.461C215.398 112.611 215.143 111.925 214.633 111.404C214.135 110.883 213.494 110.622 212.712 110.622C212.202 110.622 211.743 110.741 211.335 110.979C210.927 111.206 210.604 111.534 210.366 111.965C210.128 112.396 210.009 112.894 210.009 113.461C210.009 114.028 210.128 114.526 210.366 114.957C210.604 115.388 210.927 115.722 211.335 115.96C211.743 116.187 212.202 116.3 212.712 116.3ZM219.672 108.922H221.797V114.906L226.812 108.922H228.75V118H226.625V112.016L221.627 118H219.672V108.922ZM231.609 108.922H233.734V114.906L238.749 108.922H240.687V118H238.562V112.016L233.564 118H231.609V108.922Z" fill="black"/>
<rect x="9" y="118" width="4.00001" height="108" transform="rotate(-180 9 118)" fill="#E51937"/>
<circle cx="7" cy="7" r="5.5" transform="rotate(-180 7 7)" fill="white" stroke="#E51937" stroke-width="3"/>
</svg>
