<svg width="160" height="40" viewBox="0 0 160 40" fill="none" xmlns="http://www.w3.org/2000/svg">
<rect x="1" y="1" width="158" height="38" stroke="white" stroke-width="2"/>
<path d="M49.557 19.255C50.363 18.904 50.87 18.202 50.87 17.318C50.87 15.667 49.05 14.705 46.944 14.705C45.904 14.705 44.812 14.939 43.824 15.446L44.461 17.084C45.241 16.642 46.138 16.434 46.905 16.434C47.932 16.434 48.738 16.824 48.738 17.565C48.738 18.163 48.244 18.54 47.386 18.54H45.319V20.126H47.542C48.491 20.126 49.115 20.464 49.115 21.153C49.115 21.998 48.14 22.44 46.944 22.44C46.06 22.44 45.046 22.206 44.214 21.699L43.564 23.207C44.695 23.857 45.982 24.156 47.191 24.156C49.375 24.156 51.247 23.168 51.247 21.452C51.247 20.425 50.61 19.619 49.557 19.255ZM59.8822 24H62.0922L58.0232 14.9H55.9432L51.8872 24H54.0452L54.8512 22.05H59.0762L59.8822 24ZM55.5272 20.451L56.9702 16.967L58.4132 20.451H55.5272ZM69.188 24H71.58L68.512 19.294L71.489 14.9H69.266L66.874 18.579H65.366V14.9H63.273V24H65.366V20.334H66.822L69.188 24ZM79.3568 24H81.5668L77.4978 14.9H75.4178L71.3618 24H73.5198L74.3258 22.05H78.5508L79.3568 24ZM75.0018 20.451L76.4448 16.967L77.8878 20.451H75.0018ZM87.9476 19.255C88.7536 18.904 89.2606 18.202 89.2606 17.318C89.2606 15.667 87.4406 14.705 85.3346 14.705C84.2946 14.705 83.2026 14.939 82.2146 15.446L82.8516 17.084C83.6316 16.642 84.5286 16.434 85.2956 16.434C86.3226 16.434 87.1286 16.824 87.1286 17.565C87.1286 18.163 86.6346 18.54 85.7766 18.54H83.7096V20.126H85.9326C86.8816 20.126 87.5056 20.464 87.5056 21.153C87.5056 21.998 86.5306 22.44 85.3346 22.44C84.4506 22.44 83.4366 22.206 82.6046 21.699L81.9546 23.207C83.0856 23.857 84.3726 24.156 85.5816 24.156C87.7656 24.156 89.6376 23.168 89.6376 21.452C89.6376 20.425 89.0006 19.619 87.9476 19.255ZM98.2728 24H100.483L96.4138 14.9H94.3338L90.2778 24H92.4358L93.2418 22.05H97.4668L98.2728 24ZM93.9178 20.451L95.3608 16.967L96.8038 20.451H93.9178ZM108.188 14.9H100.297V16.616H103.196V24H105.276V16.616H108.188V14.9ZM113.917 17.89H111.603V14.9H109.51V24H113.618C115.958 24 117.362 22.921 117.362 20.828C117.362 18.865 116.114 17.89 113.917 17.89ZM113.501 22.44H111.603V19.45H113.501C114.593 19.45 115.243 19.866 115.243 20.867C115.243 21.894 114.58 22.44 113.501 22.44Z" fill="white"/>
</svg>
